<svg xmlns="http://www.w3.org/2000/svg" width="1500" height="703"><path d="M-195.432-251.766h1859.919V941.085H-195.432z" style="fill:#1c4c50;fill-opacity:1"/><path d="M403.489 411.391c-5.801-1.98-9.284-4.876-11.386-9.467-.878-1.918-1.076-3.407-1.078-8.095-.003-5.217.134-6.045 1.493-9.015 3.014-6.587 7.49-8.713 15.811-7.51 7.869 1.137 16.087 4.76 22.309 9.83 3.033 2.474 4.424 4.07 3.945 4.526-.134.128-2.71.49-5.727.804-10.702 1.115-20.352-.861-26.79-5.486-1.406-1.01-2.661-1.733-2.789-1.606-.127.127 1.116 2.435 2.764 5.128 2.812 4.597 9.582 19.531 9.582 21.137 0 1.043-4.781.898-8.134-.246m-24.19-13.423c-3.303-3.614-7.35-10.127-9.498-15.29-5.131-12.324-5.476-23.865-.995-33.255 2.339-4.9 2.706-5.046 5.633-2.244 4.088 3.915 7.039 6.055 10.733 7.784 3.295 1.541 4.045 1.673 11.721 2.055 9.559.476 13.445 1.478 18.29 4.713 4.944 3.301 11.595 11.11 10.444 12.262-.155.155-1.901-.537-3.88-1.538-4.857-2.46-8.934-3.432-14.386-3.432-5.605 0-9.22.73-12.972 2.624-8.357 4.214-12.663 13.197-11.8 24.618.208 2.764.152 4.614-.14 4.614-.27 0-1.687-1.31-3.15-2.911zm-21.232-43.906c-2.975-3.21-2.979-9.56-.009-15.59 1.833-3.721 6.042-8.479 6.985-7.896.621.384 2.711 7.06 2.711 8.658 0 .618-.948 2.695-2.107 4.617-1.16 1.922-2.575 5.005-3.145 6.851-1.58 5.116-2.301 5.662-4.435 3.36zm77.25-.957c-.161-.418.329-3.177 1.088-6.13 2.031-7.898 7.23-19.21 8.83-19.21.367 0 1.59.789 2.72 1.752 3.442 2.937 10.027 7.146 15.58 9.958 2.9 1.469 5.231 2.901 5.181 3.184-.093.518-2.01 1.013-10.092 2.605-4.749.936-12.389 3.605-17.495 6.113-4.971 2.442-5.48 2.593-5.813 1.728zm-52.003-6.19c-7.845-8.064-11.256-17.707-10.653-30.116.52-10.71 4.11-21.062 10.937-31.535 8.748-13.42 22.275-23.26 38.91-28.305 14.122-4.282 26.653-4.487 38.727-.634 8.985 2.868 10.948 4.535 6.659 5.657-3.77.986-10.434 4.483-13.448 7.056-3.75 3.202-7.896 8.102-10.038 11.859-.942 1.653-2.103 3.68-2.58 4.506-.643 1.113-1.86 1.876-4.7 2.949-25.18 9.51-46.721 34.907-48.897 57.65-.216 2.265-.632 3.96-1 4.083-.347.115-2.11-1.311-3.917-3.17zm11.423 1.914c-1.004-1.003 1.034-8.347 4.34-15.639 4.744-10.46 16.144-23.313 27.17-30.629 6.037-4.005 10.79-6.48 11.357-5.912.168.168.33 4.006.36 8.53.06 8.763-.112 7.942 3.475 16.692.378.922.58 1.783.45 1.913-.13.13-2.588.634-5.46 1.121-17.746 3.012-32.143 10.914-39.223 21.53-1.957 2.935-1.943 2.921-2.47 2.394zm119.398-.732c-10.358-1.184-18.31-2.929-28.74-6.305-19.115-6.187-30.693-12.832-37.08-21.28-3.33-4.406-4.057-7.01-4.026-14.42.033-7.838 1.064-12.355 4.417-19.34 4.392-9.151 9.205-14.399 16.738-18.25 5.507-2.815 8.864-3.586 15.375-3.53 12.627.108 23.103 4.804 33.481 15.009 6.855 6.74 9.745 10.968 15.868 23.218 2.363 4.728 5.47 10.334 6.903 12.459 3.022 4.478 5.557 9.664 5.97 12.214.388 2.386-1.65 4.864-4.683 5.693-2.111.577-8.228.441-17.457-.388-5.172-.465-4.956.378.784 3.055 6.057 2.825 8.686 4.684 9.725 6.873 1.005 2.119.549 3.926-1.322 5.237-1.524 1.067-4.941 1.014-15.953-.245zm-30.976-12.367c-.006-.216-.24-1.974-.519-3.908-.677-4.68.097-12.13 1.558-14.993 1.486-2.912 3.817-5.082 12.364-11.509 9.834-7.396 9.504-6.991 5.408-6.626-3.878.346-10.044 2.32-13.413 4.294-11.552 6.77-15.183 21.59-7.695 31.408 1.225 1.606 2.321 2.243 2.297 1.334m32.453-20.803c4.125-2.859 4.454-8.61.7-12.247-1.466-1.422-2.277-1.763-4.667-1.96-2.425-.202-3.189-.04-4.725 1-2.077 1.405-3.905 4.716-3.905 7.072 0 .872.534 2.378 1.187 3.347 2.844 4.22 7.649 5.394 11.41 2.788zM350.847 334.49c-.894-4.47-.053-11.286 1.926-15.602 1.726-3.766 10.896-12.093 12.048-10.941.133.132.083 4.234-.11 9.115l-.351 8.875-2.522 1.36c-3.295 1.778-6.589 4.559-8.199 6.922-1.585 2.327-2.366 2.403-2.792.27zm-1.727-26.368c-.555-1.445 1.303-8.641 3.258-12.616 3.717-7.562 11.583-13.251 18.497-13.38 1.68-.03 3.233.121 3.452.339.218.217-.796 2.802-2.254 5.744-1.458 2.943-3.183 6.878-3.834 8.745-.65 1.867-1.376 3.65-1.611 3.962-.235.313-1.692.852-3.236 1.197-3.41.764-9.402 3.576-11.641 5.466-1.917 1.618-2.197 1.675-2.631.543zm6.83-32.273c-.471-1.226 2.681-6.203 6.124-9.669 4.828-4.86 11.836-7.843 18.475-7.865 3.408-.012 11.427 1.469 12.6 2.326.833.61.612.95-2.427 3.738-3.192 2.93-6.368 6.21-9.741 10.062l-1.551 1.772-2.835-.716c-4.763-1.202-15.397-.692-19.66.944-.363.14-.807-.127-.986-.592zm157.248-2.173c-3.201-2.662-9.005-6.218-14.208-8.703-2.947-1.408-5.472-2.742-5.61-2.965-.137-.222.554-1.282 1.537-2.355 2.365-2.582 3.894-6.798 4.607-12.704.499-4.123.724-4.83 1.541-4.83 1.696 0 3.823 1.445 6.604 4.488 3.405 3.726 5.524 7.882 6.834 13.407 1.117 4.71 1.637 14.534.784 14.801-.287.09-1.227-.422-2.089-1.139m-28.323-15.643c-.626-.439-4.142-2.093-7.813-3.676-3.672-1.583-6.893-3.096-7.159-3.362-.297-.297.206-1.954 1.3-4.288 1.719-3.668 1.783-4.03 1.783-10.072 0-5.745-.12-6.522-1.436-9.333-2.44-5.207-2.037-5.398 4.361-2.073 4.142 2.153 8.644 6.053 10.874 9.42 4.15 6.266 4.848 15.041 1.766 22.223-.91 2.121-1.871 2.425-3.676 1.16zm-88.662-2.286c-5.003-4.135-10.724-6.317-16.557-6.317-3.768 0-3.936-.763-.804-3.667 9.25-8.58 27.097-9.116 35.448-1.067 2.763 2.663 3.206 4.136 1.389 4.612-1.552.406-12.804 6.036-14.772 7.392-.862.593-1.718 1.08-1.902 1.082-.184.002-1.445-.914-2.802-2.035zm65.283-7.932c-.861-.265-3.916-.952-6.789-1.529a546.302 546.302 0 0 1-6.365-1.304c-.921-.206-1.203-.74-1.446-2.735-1.16-9.503-2.545-14.163-5.757-19.367-1.01-1.638-1.838-3.149-1.838-3.359 0-1.392 9.351 1.136 13.889 3.756 4.434 2.56 8.355 6.531 10.252 10.385 1.533 3.113 1.709 3.935 1.695 7.923-.014 4.088-.715 6.874-1.7 6.755-.206-.024-1.079-.26-1.94-.525m-40.722-4.727c-1.91-4.885-6.092-9.23-11.687-12.142-4.348-2.262-4.336-2.717.105-4.196 12.725-4.237 27.664 2.614 31.842 14.602 1.023 2.936.706 3.377-2.43 3.38-1.483 0-4.812.367-7.397.813-2.586.447-5.652.941-6.816 1.1l-2.115.286z" style="fill:#f6a24c;fill-opacity:1;stroke-width:.52224" transform="translate(5.753 -1.089)"/><path d="M563.537 760.97q2.464 0 4.032-.373 1.643-.448 2.613-1.12.97-.747 1.344-1.718.374-.97.374-2.165 0-2.539-2.39-4.181-2.39-1.718-8.213-3.659-2.539-.896-5.077-2.016-2.54-1.195-4.555-2.912-2.016-1.792-3.285-4.256-1.27-2.539-1.27-6.123t1.344-6.421q1.344-2.912 3.808-4.928 2.464-2.016 5.974-3.061 3.509-1.12 7.914-1.12 5.227 0 9.035 1.12t6.272 2.464l-3.36 9.184q-2.165-1.12-4.853-1.942-2.614-.896-6.347-.896-4.181 0-6.048 1.195-1.792 1.12-1.792 3.51 0 1.418.672 2.389.672.97 1.867 1.792 1.269.746 2.837 1.418 1.643.598 3.584 1.27 4.032 1.493 7.019 2.986 2.986 1.419 4.928 3.36 2.016 1.942 2.986 4.555.97 2.613.97 6.347 0 7.242-5.076 11.274-5.078 3.958-15.307 3.958-3.435 0-6.197-.448-2.763-.374-4.928-.971-2.091-.597-3.66-1.27-1.492-.671-2.538-1.269l3.286-9.258q2.314 1.269 5.674 2.314 3.435.971 8.363.971zm28.224-40.17 11.125-1.793v11.574h13.366v9.258h-13.366v13.814q0 3.509 1.195 5.6 1.27 2.09 5.003 2.09 1.792 0 3.658-.298 1.942-.374 3.51-.971l1.568 8.661q-2.016.822-4.48 1.419-2.464.597-6.048.597-4.555 0-7.542-1.194-2.986-1.27-4.778-3.435-1.792-2.24-2.539-5.376-.672-3.136-.672-6.944zm68.768 29.343q0 4.63-1.344 8.512-1.344 3.808-3.883 6.571-2.538 2.688-6.122 4.181-3.51 1.494-7.915 1.494-4.33 0-7.915-1.494-3.509-1.493-6.048-4.181-2.538-2.763-3.957-6.57-1.419-3.883-1.419-8.513 0-4.629 1.419-8.437 1.493-3.808 4.032-6.496 2.613-2.688 6.123-4.181 3.584-1.494 7.765-1.494 4.256 0 7.765 1.494 3.584 1.493 6.123 4.181 2.539 2.688 3.957 6.496 1.419 3.808 1.419 8.437zm-11.35 0q0-5.152-2.09-8.064-2.016-2.986-5.824-2.986t-5.899 2.986q-2.09 2.912-2.09 8.064t2.09 8.214q2.091 2.986 5.899 2.986t5.824-2.986q2.09-3.062 2.09-8.214m19.937-18.218q2.837-.822 7.317-1.494 4.48-.746 9.408-.746 5.003 0 8.288 1.344 3.36 1.269 5.301 3.658 1.942 2.39 2.763 5.675.821 3.285.821 7.317v22.176H691.89v-20.832q0-5.376-1.419-7.616-1.418-2.24-5.301-2.24-1.195 0-2.539.15-1.344.074-2.389.224v30.314h-11.125zm42.112 18.592q0-5.227 1.568-9.11 1.642-3.957 4.256-6.57 2.613-2.614 5.973-3.958 3.435-1.344 7.019-1.344 8.362 0 13.216 5.152 4.853 5.078 4.853 15.008 0 .971-.075 2.166-.074 1.12-.149 2.016h-25.237q.373 3.434 3.21 5.45 2.838 2.016 7.616 2.016 3.062 0 5.974-.522 2.986-.598 4.853-1.419l1.493 9.035q-.896.448-2.389.896-1.493.448-3.36.746-1.792.374-3.883.598-2.09.224-4.18.224-5.302 0-9.26-1.568-3.882-1.568-6.496-4.256-2.538-2.763-3.808-6.496-1.194-3.734-1.194-8.064m26.133-4.256q-.075-1.419-.523-2.763-.373-1.344-1.269-2.39-.821-1.045-2.165-1.717-1.27-.672-3.21-.672-1.868 0-3.212.672-1.344.598-2.24 1.643-.896 1.045-1.418 2.464-.448 1.344-.672 2.763zm36.363-34.347q3.136 0 5.152.523 2.09.522 3.51 1.12l-1.942 8.736q-1.195-.523-2.688-.747-1.419-.224-2.912-.224-2.016 0-3.435.597-1.344.523-2.165 1.494-.747.97-1.12 2.314-.299 1.344-.299 2.912v1.942h13.739v9.258h-13.739v30.016H756.7V728.49q0-7.616 4.256-12.096 4.33-4.48 12.768-4.48zm25.386 57.941h-11.125v-39.274h11.125zm1.046-50.624q0 3.062-2.016 4.854-1.942 1.717-4.63 1.717-2.688 0-4.704-1.717-1.94-1.792-1.94-4.854 0-3.061 1.94-4.778 2.016-1.792 4.704-1.792 2.688 0 4.63 1.792 2.016 1.717 2.016 4.778m20.683 42.635q3.06 0 4.33-.597 1.27-.598 1.27-2.315 0-1.344-1.643-2.315-1.643-1.045-5.003-2.314-2.613-.971-4.778-2.016-2.091-1.046-3.585-2.464-1.493-1.494-2.314-3.51-.822-2.016-.822-4.853 0-5.525 4.107-8.736 4.107-3.21 11.275-3.21 3.584 0 6.87.671 3.285.598 5.226 1.344l-1.941 8.662q-1.942-.672-4.257-1.195-2.24-.523-5.077-.523-5.226 0-5.226 2.912 0 .672.224 1.195t.896 1.045q.672.448 1.792 1.046 1.194.522 2.986 1.194 3.659 1.344 6.048 2.688 2.39 1.27 3.734 2.838 1.418 1.493 1.94 3.36.598 1.866.598 4.33 0 5.824-4.405 8.811-4.33 2.987-12.32 2.987-5.227 0-8.736-.896-3.435-.896-4.779-1.494l1.867-9.034q2.837 1.12 5.824 1.792 2.986.597 5.898.597zm24.938 7.99v-56.15l11.126-1.792v18.816q1.12-.373 2.837-.672 1.792-.373 3.435-.373 4.778 0 7.914 1.344 3.21 1.269 5.078 3.658 1.94 2.39 2.688 5.675.82 3.285.82 7.317v22.176h-11.124v-20.832q0-5.376-1.42-7.616-1.343-2.24-5.076-2.24-1.494 0-2.838.299-1.27.224-2.314.523v29.866z" aria-label="Stonefish" style="font-weight:700;font-size:74.6667px;font-family:Ubuntu;-inkscape-font-specification:&quot;Ubuntu Bold&quot;;white-space:pre;fill:#f6a24c" transform="translate(-315.449 -926.822)scale(1.66047)"/><path d="M-27.997-239.11h102.25v39.527h-102.25z" style="fill:#1c4c50;fill-opacity:1"/><path d="M282.651 687.362q-7.008 0-12.768-2.304-5.76-2.304-9.888-6.72t-6.432-10.848q-2.208-6.528-2.208-14.88t2.496-14.784q2.592-6.528 6.912-10.944 4.32-4.416 10.08-6.72 5.76-2.304 12.288-2.304 4.128 0 7.392.576 3.36.576 5.76 1.344 2.496.768 4.032 1.536t2.112 1.152l-2.688 7.68q-.864-.576-2.496-1.248-1.632-.672-3.744-1.344-2.016-.672-4.512-1.056-2.4-.48-4.896-.48-5.28 0-9.504 1.824-4.224 1.824-7.2 5.28-2.976 3.456-4.608 8.448-1.536 4.896-1.536 11.04 0 5.952 1.344 10.848 1.44 4.896 4.224 8.448 2.784 3.456 6.912 5.376 4.224 1.92 9.792 1.92 6.432 0 10.656-1.344t6.336-2.4l2.4 7.68q-.672.48-2.4 1.248-1.728.672-4.32 1.344-2.592.672-6.048 1.152-3.456.48-7.488.48zm72.96-26.4q0 5.952-1.728 10.752-1.728 4.8-4.896 8.256-3.072 3.456-7.392 5.376-4.32 1.824-9.408 1.824-5.088 0-9.408-1.824-4.32-1.92-7.488-5.376-3.072-3.456-4.8-8.256-1.728-4.8-1.728-10.752 0-5.856 1.728-10.656 1.728-4.896 4.8-8.352 3.168-3.456 7.488-5.28 4.32-1.92 9.408-1.92 5.088 0 9.408 1.92 4.32 1.824 7.392 5.28 3.168 3.456 4.896 8.352 1.728 4.8 1.728 10.656m-9.312 0q0-8.448-3.84-13.344-3.744-4.992-10.272-4.992-6.528 0-10.368 4.992-3.744 4.896-3.744 13.344t3.744 13.44q3.84 4.896 10.368 4.896 6.528 0 10.272-4.896 3.84-4.992 3.84-13.44m54.144-14.4q-1.632-1.344-4.704-2.592t-6.72-1.248q-3.84 0-6.624 1.44-2.688 1.344-4.416 3.84-1.728 2.4-2.496 5.76t-.768 7.2q0 8.736 4.32 13.536 4.32 4.704 11.52 4.704 3.648 0 6.048-.288 2.496-.384 3.84-.768zm0-33.6 8.928-1.536v73.056q-3.072.864-7.872 1.728t-11.04.864q-5.76 0-10.368-1.824-4.608-1.824-7.872-5.184-3.264-3.36-5.088-8.16-1.728-4.896-1.728-10.944 0-5.76 1.44-10.56 1.536-4.8 4.416-8.256 2.88-3.456 7.008-5.376 4.224-1.92 9.6-1.92 4.32 0 7.584 1.152 3.36 1.152 4.992 2.208zm21.504 48.096q0-6.624 1.92-11.52 1.92-4.992 5.088-8.256 3.168-3.264 7.296-4.896 4.128-1.632 8.448-1.632 10.08 0 15.456 6.336 5.376 6.24 5.376 19.104v1.536q0 .864-.096 1.632H431.26q.576 7.776 4.512 11.808 3.936 4.032 12.288 4.032 4.704 0 7.872-.768 3.264-.864 4.896-1.632l1.248 7.488q-1.632.864-5.76 1.824-4.032.96-9.216.96-6.528 0-11.328-1.92-4.704-2.016-7.776-5.472-3.072-3.456-4.608-8.16-1.44-4.8-1.44-10.464zm34.272-4.896q.096-6.048-3.072-9.888-3.072-3.936-8.544-3.936-3.072 0-5.472 1.248-2.304 1.152-3.936 3.072-1.632 1.92-2.592 4.416-.864 2.496-1.152 5.088zm60.384 23.136q14.592 0 14.592-9.984 0-3.072-1.344-5.184-1.248-2.208-3.456-3.744-2.208-1.632-5.088-2.784-2.784-1.152-5.952-2.304-3.648-1.248-6.912-2.784-3.264-1.632-5.664-3.744-2.4-2.208-3.84-5.184-1.344-2.976-1.344-7.2 0-8.736 5.952-13.632 5.952-4.896 16.416-4.896 6.048 0 10.944 1.344 4.992 1.248 7.296 2.784l-2.976 7.584q-2.016-1.248-6.048-2.4-3.936-1.248-9.216-1.248-2.688 0-4.992.576t-4.032 1.728q-1.728 1.152-2.784 2.976-.96 1.728-.96 4.128 0 2.688 1.056 4.512 1.056 1.824 2.976 3.264 1.92 1.344 4.416 2.496 2.592 1.152 5.664 2.304 4.32 1.728 7.872 3.456 3.648 1.728 6.24 4.128 2.688 2.4 4.128 5.76 1.44 3.264 1.44 7.968 0 8.736-6.432 13.44-6.336 4.704-17.952 4.704-3.936 0-7.296-.576-3.264-.48-5.856-1.152-2.592-.768-4.512-1.536-1.824-.864-2.88-1.44l2.784-7.68q2.208 1.248 6.72 2.784 4.512 1.536 11.04 1.536zm35.04 6.624v-72.96l8.928-1.536v25.536q2.496-.96 5.28-1.44 2.88-.576 5.664-.576 5.952 0 9.888 1.728 3.936 1.632 6.24 4.704 2.4 2.976 3.36 7.2t.96 9.312v28.032h-8.928V659.81q0-4.608-.672-7.872-.576-3.264-2.016-5.28-1.44-2.016-3.84-2.88-2.4-.96-5.952-.96-1.44 0-2.976.192t-2.976.48q-1.344.192-2.496.48-1.056.288-1.536.48v41.472zm63.744 0h-8.928v-49.92h8.928zm-4.512-58.944q-2.4 0-4.128-1.536-1.632-1.632-1.632-4.32 0-2.688 1.632-4.224 1.728-1.632 4.128-1.632 2.4 0 4.032 1.632 1.728 1.536 1.728 4.224t-1.728 4.32q-1.632 1.536-4.032 1.536m17.088 34.08q0-6.624 1.92-11.52 1.92-4.992 5.088-8.256 3.168-3.264 7.296-4.896 4.128-1.632 8.448-1.632 10.08 0 15.456 6.336 5.376 6.24 5.376 19.104v1.536q0 .864-.096 1.632h-34.176q.576 7.776 4.512 11.808 3.936 4.032 12.288 4.032 4.704 0 7.872-.768 3.264-.864 4.896-1.632l1.248 7.488q-1.632.864-5.76 1.824-4.032.96-9.216.96-6.528 0-11.328-1.92-4.704-2.016-7.776-5.472-3.072-3.456-4.608-8.16-1.44-4.8-1.44-10.464zm34.272-4.896q.096-6.048-3.072-9.888-3.072-3.936-8.544-3.936-3.072 0-5.472 1.248-2.304 1.152-3.936 3.072-1.632 1.92-2.592 4.416-.864 2.496-1.152 5.088zm37.152 30.72q-8.256-.192-11.712-3.552-3.456-3.36-3.456-10.464v-59.904l8.928-1.536v60q0 2.208.384 3.648t1.248 2.304q.864.864 2.304 1.344 1.44.384 3.552.672zm43.488-40.32q-1.632-1.344-4.704-2.592t-6.72-1.248q-3.84 0-6.624 1.44-2.688 1.344-4.416 3.84-1.728 2.4-2.496 5.76t-.768 7.2q0 8.736 4.32 13.536 4.32 4.704 11.52 4.704 3.648 0 6.048-.288 2.496-.384 3.84-.768zm0-33.6 8.928-1.536v73.056q-3.072.864-7.872 1.728t-11.04.864q-5.76 0-10.368-1.824-4.608-1.824-7.872-5.184-3.264-3.36-5.088-8.16-1.728-4.896-1.728-10.944 0-5.76 1.44-10.56 1.536-4.8 4.416-8.256 2.88-3.456 7.008-5.376 4.224-1.92 9.6-1.92 4.32 0 7.584 1.152 3.36 1.152 4.992 2.208z" aria-label="Code Shield" style="font-size:96px;font-family:Ubuntu;-inkscape-font-specification:Ubuntu;white-space:pre;fill:#ccc" transform="translate(390 -220)"/></svg>